HIERARCHY
ROOT Hips
{
	OFFSET 0.000000 0.000000 0.000000
	CHANNELS 6 Xposition Yposition Zposition Xrotation Yrotation Zrotation
	JOINT LeftUpLeg_virtual
	{
		OFFSET 0.000000 0.000000 0.000000
		CHANNELS 3 Xrotation Yrotation Zrotation
		JOINT LeftUpLeg
		{
			OFFSET 11.394100 -6.187798 -0.413800
			CHANNELS 3 Xrotation Yrotation Zrotation
			JOINT LeftLeg
			{
				OFFSET 0.430247 -32.302673 3.732800
				CHANNELS 3 Xrotation Yrotation Zrotation
				JOINT LeftFoot
				{
					OFFSET -0.430247 -48.264931 -6.423300
					CHANNELS 3 Xrotation Yrotation Zrotation
					JOINT LeftToeBase
					{
						OFFSET 4.230900 -16.068199 23.438400
						CHANNELS 3 Xrotation Yrotation Zrotation
						JOINT LeftToe_End
						{
							OFFSET 4.510700 0.695400 19.974600
							CHANNELS 3 Xrotation Yrotation Zrotation
							End Site
							{
								OFFSET 0 0 0
							}
						}
					}
				}
			}
		}
	}
	JOINT RightUpLeg_virtual
	{
		OFFSET 0.000000 0.000000 0.000000
		CHANNELS 3 Xrotation Yrotation Zrotation
		JOINT RightUpLeg
		{
			OFFSET -11.333700 -6.187798 -0.413800
			CHANNELS 3 Xrotation Yrotation Zrotation
			JOINT RightLeg
			{
				OFFSET -0.430392 -32.302628 3.733000
				CHANNELS 3 Xrotation Yrotation Zrotation
				JOINT RightFoot
				{
					OFFSET 0.430392 -48.264973 -6.423500
					CHANNELS 3 Xrotation Yrotation Zrotation
					JOINT RightToeBase
					{
						OFFSET -4.230900 -16.068199 23.438400
						CHANNELS 3 Xrotation Yrotation Zrotation
						JOINT RightToe_End
						{
							OFFSET -4.510700 0.695400 19.974600
							CHANNELS 3 Xrotation Yrotation Zrotation
							End Site
							{
								OFFSET 0 0 0
							}
						}
					}
				}
			}
		}
	}
	JOINT Spine_virtual
	{
		OFFSET 0.000000 0.000000 0.000000
		CHANNELS 3 Xrotation Yrotation Zrotation
		JOINT Spine
		{
			OFFSET -0.002400 12.777504 0.315300
			CHANNELS 3 Xrotation Yrotation Zrotation
			JOINT Spine1
			{
				OFFSET -0.002067 5.816869 0.032633
				CHANNELS 3 Xrotation Yrotation Zrotation
				JOINT Spine1_split
				{
					OFFSET -0.002067 5.816869 0.032633
					CHANNELS 3 Xrotation Yrotation Zrotation
					JOINT Spine2
					{
						OFFSET -0.002067 5.816869 0.032633
						CHANNELS 3 Xrotation Yrotation Zrotation
						JOINT Neck_virtual
						{
							OFFSET 0.000000 0.000000 0.000000
							CHANNELS 3 Xrotation Yrotation Zrotation
							JOINT Neck
							{
								OFFSET -0.003700 21.199493 -0.826900
								CHANNELS 3 Xrotation Yrotation Zrotation
								JOINT Head
								{
									OFFSET 0.000000 20.442200 4.834800
									CHANNELS 3 Xrotation Yrotation Zrotation
									JOINT HeadTop_End
									{
										OFFSET 0.000000 34.668396 4.968400
										CHANNELS 3 Xrotation Yrotation Zrotation
										End Site
										{
											OFFSET 0 0 0
										}
									}
								}
							}
						}
						JOINT LeftShoulder_virtual
						{
							OFFSET 0.000000 0.000000 0.000000
							CHANNELS 3 Xrotation Yrotation Zrotation
							JOINT LeftShoulder
							{
								OFFSET 3.288150 8.794197 -1.372250
								CHANNELS 3 Xrotation Yrotation Zrotation
								JOINT LeftShoulder_split
								{
									OFFSET 3.288150 8.794197 -1.372250
									CHANNELS 3 Xrotation Yrotation Zrotation
									JOINT LeftArm
									{
										OFFSET 11.953299 -2.279007 -0.146200
										CHANNELS 3 Xrotation Yrotation Zrotation
										JOINT LeftForeArm
										{
											OFFSET 18.448900 0.000000 0.000000
											CHANNELS 3 Xrotation Yrotation Zrotation
											JOINT LeftHand
											{
												OFFSET 29.527798 0.000000 0.000000
												CHANNELS 3 Xrotation Yrotation Zrotation
												End Site
												{
													OFFSET 0 0 0
												}
											}
										}
									}
								}
							}
						}
						JOINT RightShoulder_virtual
						{
							OFFSET 0.000000 0.000000 0.000000
							CHANNELS 3 Xrotation Yrotation Zrotation
							JOINT RightShoulder
							{
								OFFSET -3.249400 8.794197 -1.372250
								CHANNELS 3 Xrotation Yrotation Zrotation
								JOINT RightShoulder_split
								{
									OFFSET -3.249400 8.794197 -1.372250
									CHANNELS 3 Xrotation Yrotation Zrotation
									JOINT RightArm
									{
										OFFSET -11.953299 -2.279007 -0.146200
										CHANNELS 3 Xrotation Yrotation Zrotation
										JOINT RightForeArm
										{
											OFFSET -18.448900 0.000000 0.000000
											CHANNELS 3 Xrotation Yrotation Zrotation
											JOINT RightHand
											{
												OFFSET -29.527802 0.000000 0.000000
												CHANNELS 3 Xrotation Yrotation Zrotation
												End Site
												{
													OFFSET 0 0 0
												}
											}
										}
									}
								}
							}
						}
					}
				}
			}
		}
	}
}
MOTION
Frames: 8
Frame Time: 0.03333333
-0.651731 90.574303 0.256397 0.000000 0.000000 0.000000 12.353053 -55.937450 11.297078 -46.991083 5.824122 28.668104 40.677748 -9.862306 -9.781887 -1.461340 -1.264650 -5.522654 0.440890 0.001373 -0.456726 0.000000 0.000000 0.000000 12.353053 -55.937450 11.297078 -35.997986 -8.041866 -20.902448 51.077818 7.551776 -1.118017 -28.868822 -4.208954 11.206577 9.011168 -0.000002 -0.000002 0.000000 0.000000 0.000000 12.353053 -55.937450 11.297078 11.717284 1.394601 -2.739726 -7.573175 6.733748 -2.520092 0.000000 0.000000 0.000000 0.000000 0.000000 0.000000 0.220139 5.397600 -4.595492 -12.580311 9.083975 1.899286 -4.773440 33.430747 5.660078 0.000000 0.000000 0.000000 0.220139 5.397600 -4.595492 -31.809700 13.410708 5.488762 0.000000 0.000000 0.000000 38.429516 -24.730793 -35.179193 0.000006 -63.060862 0.000000 0.000000 0.000000 0.000000 0.220139 5.397600 -4.595492 0.882305 7.689496 10.202001 0.000000 0.000000 0.000000 7.550367 1.963486 57.853738 0.000006 75.685169 -0.000012 0.000000 0.000000 0.000000 
-0.720078 90.583168 0.242664 0.000000 0.000000 0.000000 12.268729 -55.881790 11.187557 -46.927156 5.803467 28.742502 40.635131 -9.770159 -9.800135 -1.441952 -1.444387 -5.557100 0.437671 0.001409 -0.465301 0.000000 0.000000 0.000000 12.268729 -55.881790 11.187557 -35.868233 -8.113661 -20.836363 51.047775 7.552564 -1.117856 -28.925472 -4.263672 11.158807 9.011157 0.000008 -0.000002 0.000000 0.000000 0.000000 12.268729 -55.881790 11.187557 11.717326 1.394721 -2.741507 -7.573169 6.733740 -2.520090 0.000000 0.000000 0.000000 0.000000 0.000000 0.000000 0.220139 5.397585 -4.595490 -12.608600 10.491368 2.412570 -4.224774 32.405751 4.896690 0.000000 0.000000 0.000000 0.220139 5.397585 -4.595490 -31.754079 12.465673 5.128834 0.000000 0.000000 0.000000 39.012302 -25.126437 -34.726987 0.000001 -61.838784 -0.000008 0.000000 0.000000 0.000000 0.220139 5.397585 -4.595490 1.163710 7.679725 9.947277 0.000000 0.000000 0.000000 6.979124 3.931129 56.951760 0.000063 74.671733 -0.000076 0.000000 0.000000 0.000000 
-0.801022 90.590843 0.237759 0.000000 0.000000 0.000000 12.211587 -55.800398 11.091870 -46.887685 5.776468 28.819594 40.599737 -9.676707 -9.818469 -1.427320 -1.647032 -5.590503 0.433867 0.001480 -0.475437 0.000000 0.000000 0.000000 12.211587 -55.800398 11.091870 -35.733190 -8.195983 -20.762392 51.010376 7.553410 -1.117699 -28.995242 -4.340129 11.108015 9.011157 0.000007 -0.000006 0.000000 0.000000 0.000000 12.211587 -55.800398 11.091870 11.717382 1.394971 -2.743205 -7.573170 6.733732 -2.520089 0.000000 0.000000 0.000000 0.000000 0.000000 0.000000 0.220138 5.397601 -4.595490 -12.821392 12.084339 2.975461 -3.719843 31.374146 4.175471 0.000000 0.000000 0.000000 0.220138 5.397601 -4.595490 -31.730422 11.421055 4.759071 0.000000 0.000000 0.000000 39.967023 -25.538415 -34.374252 -0.000001 -60.212380 -0.000009 0.000000 0.000000 0.000000 0.220138 5.397601 -4.595490 1.475924 7.670222 9.670639 0.000000 0.000000 0.000000 6.392937 5.865446 55.957325 -0.000035 73.593547 0.000029 0.000000 0.000000 0.000000 
-0.889857 90.597916 0.233740 0.000000 0.000000 0.000000 12.148972 -55.754056 10.996843 -46.819871 5.753118 28.907362 40.579493 -9.582303 -9.836762 -1.440843 -1.826384 -5.633217 0.429749 0.001558 -0.486395 0.000000 0.000000 0.000000 12.148972 -55.754056 10.996843 -35.598857 -8.278591 -20.694315 50.976079 7.553855 -1.117614 -29.065897 -4.377088 11.063411 9.011152 -0.000015 0.000004 0.000000 0.000000 0.000000 12.148972 -55.754056 10.996843 11.717415 1.395272 -2.744517 -7.573169 6.733745 -2.520093 0.000000 0.000000 0.000000 0.000000 0.000000 0.000000 0.220139 5.397591 -4.595491 -13.172009 13.808990 3.564263 -3.175430 30.361803 3.469797 0.000000 0.000000 0.000000 0.220139 5.397591 -4.595491 -31.736488 10.309238 4.391983 0.000000 0.000000 0.000000 41.206682 -26.015159 -34.093709 0.000022 -58.194059 0.000021 0.000000 0.000000 0.000000 0.220139 5.397591 -4.595491 1.816777 7.661905 9.370138 0.000000 0.000000 0.000000 5.862048 7.760582 54.903379 0.000017 72.405367 -0.000027 0.000000 0.000000 0.000000 
-1.008430 90.588791 0.253420 0.000000 0.000000 0.000000 12.025754 -55.671171 10.856211 -46.749448 5.729634 28.993357 40.613374 -9.495513 -9.855167 -1.486070 -2.051485 -5.673900 0.423232 0.001672 -0.503692 0.000000 0.000000 0.000000 12.025754 -55.671171 10.856211 -35.410197 -8.366005 -20.644544 50.971584 7.552021 -1.117904 -29.187813 -4.445643 11.022502 9.011151 -0.000004 -0.000000 0.000000 0.000000 0.000000 12.025754 -55.671171 10.856211 11.717423 1.396431 -2.745183 -7.573173 6.733743 -2.520095 0.000000 0.000000 0.000000 0.000000 0.000000 0.000000 0.220137 5.397589 -4.595490 -13.611894 15.600408 4.167297 -2.564156 29.340119 2.779435 0.000000 0.000000 0.000000 0.220137 5.397589 -4.595490 -31.768426 9.163173 4.038138 0.000000 0.000000 0.000000 42.599992 -26.639860 -33.886235 -0.000043 -55.860378 -0.000053 0.000000 0.000000 0.000000 0.220137 5.397589 -4.595490 2.178117 7.655632 9.046889 0.000000 0.000000 0.000000 5.487188 9.610652 53.855441 0.000092 71.052566 -0.000100 0.000000 0.000000 0.000000 
-1.150681 90.541336 0.279999 0.000000 0.000000 0.000000 11.919662 -55.593331 10.730500 -46.734702 5.668870 29.105663 40.768320 -9.404044 -9.873453 -1.591835 -2.291968 -5.733163 0.416239 0.001787 -0.522322 0.000000 0.000000 0.000000 11.919662 -55.593331 10.730500 -35.263973 -8.434455 -20.609022 51.059325 7.547023 -1.118376 -29.366617 -4.503341 10.988328 9.011157 -0.000023 -0.000003 0.000000 0.000000 0.000000 11.919662 -55.593331 10.730500 11.717424 1.398199 -2.745121 -7.573169 6.733741 -2.520092 0.000000 0.000000 0.000000 0.000000 0.000000 0.000000 0.220142 5.397599 -4.595490 -14.103587 17.400462 4.762781 -1.864423 28.302311 2.101893 0.000000 0.000000 0.000000 0.220142 5.397599 -4.595490 -31.820629 8.016332 3.705916 0.000000 0.000000 0.000000 44.066168 -27.360751 -33.695656 0.000012 -53.378782 0.000008 0.000000 0.000000 0.000000 0.220142 5.397599 -4.595490 2.548992 7.651771 8.703968 0.000000 0.000000 0.000000 5.354229 11.411960 52.878174 0.000039 69.497154 -0.000043 0.000000 0.000000 0.000000 
-1.319348 90.485146 0.327965 0.000000 0.000000 0.000000 11.808998 -55.498108 10.579236 -46.737116 5.581338 29.246716 40.984096 -9.312469 -9.894414 -1.749497 -2.562369 -5.786228 0.416252 0.001793 -0.522300 0.000000 0.000000 0.000000 11.808998 -55.498108 10.579236 -35.081235 -8.523430 -20.557193 51.145136 7.541377 -1.119048 -29.574897 -4.577270 10.955138 9.011156 -0.000018 -0.000007 0.000000 0.000000 0.000000 11.808998 -55.498108 10.579236 11.717423 1.400596 -2.743933 -7.573170 6.733728 -2.520089 0.000000 0.000000 0.000000 0.000000 0.000000 0.000000 0.220136 5.397592 -4.595491 -14.592103 19.175312 5.303609 -1.090994 27.292620 1.457444 0.000000 0.000000 0.000000 0.220136 5.397592 -4.595491 -31.885980 6.902784 3.401602 0.000000 0.000000 0.000000 45.490067 -28.161980 -33.525567 -0.000011 -50.897258 -0.000009 0.000000 0.000000 0.000000 0.220136 5.397592 -4.595491 2.920301 7.650382 8.343460 0.000000 0.000000 0.000000 5.491365 13.167194 52.001990 0.000030 67.735881 -0.000023 0.000000 0.000000 0.000000 
-1.523261 90.393028 0.389086 0.000000 0.000000 0.000000 11.702991 -55.357071 10.418732 -46.808721 5.444959 29.418909 41.315831 -9.220434 -9.919532 -1.959822 -2.891546 -5.834307 0.416249 0.001835 -0.522292 0.000000 0.000000 0.000000 11.702991 -55.357071 10.418732 -34.900142 -8.606207 -20.494437 51.307230 7.532556 -1.120059 -29.854504 -4.701118 10.911634 9.011157 0.000018 -0.000003 0.000000 0.000000 0.000000 11.702991 -55.357071 10.418732 11.717349 1.404009 -2.741737 -7.573162 6.733717 -2.520088 0.000000 0.000000 0.000000 0.000000 0.000000 0.000000 0.220135 5.397601 -4.595492 -15.007958 20.884692 5.771497 -0.287509 26.338669 0.849969 0.000000 0.000000 0.000000 0.220135 5.397601 -4.595492 -31.956164 5.857052 3.129551 0.000000 0.000000 0.000000 46.746259 -28.950532 -33.353405 0.000003 -48.637255 0.000012 0.000000 0.000000 0.000000 0.220135 5.397601 -4.595492 3.283998 7.651113 7.966445 0.000000 0.000000 0.000000 5.920875 14.880289 51.269954 0.000057 65.751130 -0.000062 0.000000 0.000000 0.000000 
